{
	"patcher" : 	{
		"fileversion" : 1,
		"rect" : [ 2107.0, 115.0, 690.0, 416.0 ],
		"bglocked" : 0,
		"defrect" : [ 2107.0, 115.0, 690.0, 416.0 ],
		"openrect" : [ 0.0, 0.0, 0.0, 0.0 ],
		"openinpresentation" : 1,
		"default_fontsize" : 10.0,
		"default_fontface" : 0,
		"default_fontname" : "Monaco",
		"gridonopen" : 0,
		"gridsize" : [ 15.0, 15.0 ],
		"gridsnaponopen" : 0,
		"toolbarvisible" : 1,
		"boxanimatetime" : 200,
		"imprint" : 0,
		"enablehscroll" : 1,
		"enablevscroll" : 1,
		"devicewidth" : 0.0,
		"boxes" : [ 			{
				"box" : 				{
					"maxclass" : "comment",
					"text" : "midi out device",
					"fontsize" : 10.0,
					"presentation_rect" : [ 433.0, 14.0, 150.0, 20.0 ],
					"patching_rect" : [ 425.0, 13.0, 150.0, 20.0 ],
					"presentation" : 1,
					"id" : "obj-81",
					"numinlets" : 1,
					"fontname" : "Monaco",
					"numoutlets" : 0
				}

			}
, 			{
				"box" : 				{
					"maxclass" : "comment",
					"text" : "global midi channel",
					"fontsize" : 10.0,
					"presentation_rect" : [ 242.0, 13.0, 150.0, 20.0 ],
					"patching_rect" : [ 306.0, 6.0, 150.0, 20.0 ],
					"presentation" : 1,
					"id" : "obj-80",
					"numinlets" : 1,
					"fontname" : "Monaco",
					"numoutlets" : 0
				}

			}
, 			{
				"box" : 				{
					"maxclass" : "comment",
					"text" : "activity",
					"fontsize" : 10.0,
					"presentation_rect" : [ 66.0, 49.0, 62.0, 20.0 ],
					"patching_rect" : [ 155.0, 164.0, 150.0, 20.0 ],
					"presentation" : 1,
					"id" : "obj-77",
					"numinlets" : 1,
					"fontname" : "Monaco",
					"numoutlets" : 0
				}

			}
, 			{
				"box" : 				{
					"maxclass" : "newobj",
					"text" : "r #0_btom_8",
					"outlettype" : [ "" ],
					"fontsize" : 10.0,
					"presentation_rect" : [ 22.0, 549.0, 0.0, 0.0 ],
					"patching_rect" : [ 22.0, 549.0, 77.0, 20.0 ],
					"id" : "obj-44",
					"numinlets" : 0,
					"fontname" : "Monaco",
					"numoutlets" : 1
				}

			}
, 			{
				"box" : 				{
					"maxclass" : "newobj",
					"text" : "r #0_btom_7",
					"outlettype" : [ "" ],
					"fontsize" : 10.0,
					"presentation_rect" : [ 22.0, 507.0, 0.0, 0.0 ],
					"patching_rect" : [ 22.0, 507.0, 77.0, 20.0 ],
					"id" : "obj-45",
					"numinlets" : 0,
					"fontname" : "Monaco",
					"numoutlets" : 1
				}

			}
, 			{
				"box" : 				{
					"maxclass" : "newobj",
					"text" : "r #0_btom_6",
					"outlettype" : [ "" ],
					"fontsize" : 10.0,
					"presentation_rect" : [ 22.0, 466.0, 0.0, 0.0 ],
					"patching_rect" : [ 22.0, 466.0, 77.0, 20.0 ],
					"id" : "obj-46",
					"numinlets" : 0,
					"fontname" : "Monaco",
					"numoutlets" : 1
				}

			}
, 			{
				"box" : 				{
					"maxclass" : "newobj",
					"text" : "r #0_btom_5",
					"outlettype" : [ "" ],
					"fontsize" : 10.0,
					"presentation_rect" : [ 22.0, 424.0, 0.0, 0.0 ],
					"patching_rect" : [ 22.0, 424.0, 77.0, 20.0 ],
					"id" : "obj-47",
					"numinlets" : 0,
					"fontname" : "Monaco",
					"numoutlets" : 1
				}

			}
, 			{
				"box" : 				{
					"maxclass" : "newobj",
					"text" : "r #0_btom_4",
					"outlettype" : [ "" ],
					"fontsize" : 10.0,
					"presentation_rect" : [ 22.0, 380.0, 0.0, 0.0 ],
					"patching_rect" : [ 22.0, 380.0, 77.0, 20.0 ],
					"id" : "obj-48",
					"numinlets" : 0,
					"fontname" : "Monaco",
					"numoutlets" : 1
				}

			}
, 			{
				"box" : 				{
					"maxclass" : "newobj",
					"text" : "r #0_btom_3",
					"outlettype" : [ "" ],
					"fontsize" : 10.0,
					"presentation_rect" : [ 22.0, 338.0, 0.0, 0.0 ],
					"patching_rect" : [ 22.0, 338.0, 77.0, 20.0 ],
					"id" : "obj-50",
					"numinlets" : 0,
					"fontname" : "Monaco",
					"numoutlets" : 1
				}

			}
, 			{
				"box" : 				{
					"maxclass" : "newobj",
					"text" : "r #0_btom_2",
					"outlettype" : [ "" ],
					"fontsize" : 10.0,
					"presentation_rect" : [ 22.0, 297.0, 0.0, 0.0 ],
					"patching_rect" : [ 22.0, 297.0, 77.0, 20.0 ],
					"id" : "obj-53",
					"numinlets" : 0,
					"fontname" : "Monaco",
					"numoutlets" : 1
				}

			}
, 			{
				"box" : 				{
					"maxclass" : "newobj",
					"text" : "r #0_btom_1",
					"outlettype" : [ "" ],
					"fontsize" : 10.0,
					"presentation_rect" : [ 22.0, 255.0, 0.0, 0.0 ],
					"patching_rect" : [ 22.0, 255.0, 77.0, 20.0 ],
					"id" : "obj-54",
					"numinlets" : 0,
					"fontname" : "Monaco",
					"numoutlets" : 1
				}

			}
, 			{
				"box" : 				{
					"maxclass" : "newobj",
					"text" : "p parse_buttons",
					"fontsize" : 10.0,
					"patching_rect" : [ 77.0, 150.0, 101.0, 20.0 ],
					"id" : "obj-43",
					"numinlets" : 1,
					"fontname" : "Monaco",
					"numoutlets" : 0,
					"patcher" : 					{
						"fileversion" : 1,
						"rect" : [ 149.0, 92.0, 729.0, 403.0 ],
						"bglocked" : 0,
						"defrect" : [ 149.0, 92.0, 729.0, 403.0 ],
						"openrect" : [ 0.0, 0.0, 0.0, 0.0 ],
						"openinpresentation" : 0,
						"default_fontsize" : 10.0,
						"default_fontface" : 0,
						"default_fontname" : "Monaco",
						"gridonopen" : 0,
						"gridsize" : [ 15.0, 15.0 ],
						"gridsnaponopen" : 0,
						"toolbarvisible" : 1,
						"boxanimatetime" : 200,
						"imprint" : 0,
						"enablehscroll" : 1,
						"enablevscroll" : 1,
						"devicewidth" : 0.0,
						"boxes" : [ 							{
								"box" : 								{
									"maxclass" : "newobj",
									"text" : "change",
									"outlettype" : [ "", "int", "int" ],
									"fontsize" : 10.0,
									"presentation_rect" : [ 519.0, 175.0, 0.0, 0.0 ],
									"patching_rect" : [ 571.0, 175.0, 47.0, 20.0 ],
									"id" : "obj-15",
									"numinlets" : 1,
									"fontname" : "Monaco",
									"numoutlets" : 3
								}

							}
, 							{
								"box" : 								{
									"maxclass" : "newobj",
									"text" : "change",
									"outlettype" : [ "", "int", "int" ],
									"fontsize" : 10.0,
									"presentation_rect" : [ 466.0, 175.0, 0.0, 0.0 ],
									"patching_rect" : [ 498.0, 175.0, 47.0, 20.0 ],
									"id" : "obj-16",
									"numinlets" : 1,
									"fontname" : "Monaco",
									"numoutlets" : 3
								}

							}
, 							{
								"box" : 								{
									"maxclass" : "newobj",
									"text" : "change",
									"outlettype" : [ "", "int", "int" ],
									"fontsize" : 10.0,
									"presentation_rect" : [ 403.0, 175.0, 0.0, 0.0 ],
									"patching_rect" : [ 423.0, 175.0, 47.0, 20.0 ],
									"id" : "obj-14",
									"numinlets" : 1,
									"fontname" : "Monaco",
									"numoutlets" : 3
								}

							}
, 							{
								"box" : 								{
									"maxclass" : "newobj",
									"text" : "change",
									"outlettype" : [ "", "int", "int" ],
									"fontsize" : 10.0,
									"patching_rect" : [ 350.0, 175.0, 47.0, 20.0 ],
									"id" : "obj-13",
									"numinlets" : 1,
									"fontname" : "Monaco",
									"numoutlets" : 3
								}

							}
, 							{
								"box" : 								{
									"maxclass" : "newobj",
									"text" : "unpack",
									"outlettype" : [ "int", "int" ],
									"fontsize" : 10.0,
									"patching_rect" : [ 50.0, 287.0, 47.0, 20.0 ],
									"id" : "obj-9",
									"numinlets" : 1,
									"fontname" : "Monaco",
									"numoutlets" : 2
								}

							}
, 							{
								"box" : 								{
									"maxclass" : "newobj",
									"text" : "sprintf send #0_btom_%i",
									"outlettype" : [ "" ],
									"fontsize" : 10.0,
									"patching_rect" : [ 78.0, 313.0, 149.0, 20.0 ],
									"id" : "obj-29",
									"numinlets" : 1,
									"fontname" : "Monaco",
									"numoutlets" : 1
								}

							}
, 							{
								"box" : 								{
									"maxclass" : "newobj",
									"text" : "forward",
									"fontsize" : 10.0,
									"patching_rect" : [ 50.0, 345.0, 141.0, 20.0 ],
									"id" : "obj-17",
									"numinlets" : 1,
									"fontname" : "Monaco",
									"numoutlets" : 0
								}

							}
, 							{
								"box" : 								{
									"maxclass" : "newobj",
									"text" : "zl rev",
									"outlettype" : [ "", "" ],
									"fontsize" : 10.0,
									"patching_rect" : [ 50.0, 257.0, 47.0, 20.0 ],
									"id" : "obj-8",
									"numinlets" : 2,
									"fontname" : "Monaco",
									"numoutlets" : 2
								}

							}
, 							{
								"box" : 								{
									"maxclass" : "newobj",
									"text" : "prepend 8",
									"outlettype" : [ "" ],
									"fontsize" : 10.0,
									"patching_rect" : [ 571.0, 205.0, 65.0, 20.0 ],
									"id" : "obj-4",
									"numinlets" : 1,
									"fontname" : "Monaco",
									"numoutlets" : 1
								}

							}
, 							{
								"box" : 								{
									"maxclass" : "newobj",
									"text" : "prepend 7",
									"outlettype" : [ "" ],
									"fontsize" : 10.0,
									"patching_rect" : [ 498.0, 205.0, 65.0, 20.0 ],
									"id" : "obj-5",
									"numinlets" : 1,
									"fontname" : "Monaco",
									"numoutlets" : 1
								}

							}
, 							{
								"box" : 								{
									"maxclass" : "newobj",
									"text" : "prepend 6",
									"outlettype" : [ "" ],
									"fontsize" : 10.0,
									"patching_rect" : [ 423.0, 205.0, 65.0, 20.0 ],
									"id" : "obj-6",
									"numinlets" : 1,
									"fontname" : "Monaco",
									"numoutlets" : 1
								}

							}
, 							{
								"box" : 								{
									"maxclass" : "newobj",
									"text" : "prepend 5",
									"outlettype" : [ "" ],
									"fontsize" : 10.0,
									"patching_rect" : [ 350.0, 205.0, 65.0, 20.0 ],
									"id" : "obj-7",
									"numinlets" : 1,
									"fontname" : "Monaco",
									"numoutlets" : 1
								}

							}
, 							{
								"box" : 								{
									"maxclass" : "newobj",
									"text" : "prepend 4",
									"outlettype" : [ "" ],
									"fontsize" : 10.0,
									"patching_rect" : [ 271.0, 205.0, 65.0, 20.0 ],
									"id" : "obj-2",
									"numinlets" : 1,
									"fontname" : "Monaco",
									"numoutlets" : 1
								}

							}
, 							{
								"box" : 								{
									"maxclass" : "newobj",
									"text" : "prepend 3",
									"outlettype" : [ "" ],
									"fontsize" : 10.0,
									"patching_rect" : [ 198.0, 205.0, 65.0, 20.0 ],
									"id" : "obj-3",
									"numinlets" : 1,
									"fontname" : "Monaco",
									"numoutlets" : 1
								}

							}
, 							{
								"box" : 								{
									"maxclass" : "newobj",
									"text" : "prepend 2",
									"outlettype" : [ "" ],
									"fontsize" : 10.0,
									"patching_rect" : [ 123.0, 205.0, 65.0, 20.0 ],
									"id" : "obj-1",
									"numinlets" : 1,
									"fontname" : "Monaco",
									"numoutlets" : 1
								}

							}
, 							{
								"box" : 								{
									"maxclass" : "newobj",
									"text" : "prepend 1",
									"outlettype" : [ "" ],
									"fontsize" : 10.0,
									"patching_rect" : [ 50.0, 205.0, 65.0, 20.0 ],
									"id" : "obj-41",
									"numinlets" : 1,
									"fontname" : "Monaco",
									"numoutlets" : 1
								}

							}
, 							{
								"box" : 								{
									"maxclass" : "newobj",
									"text" : "== 255",
									"outlettype" : [ "int" ],
									"fontsize" : 10.0,
									"patching_rect" : [ 480.0, 137.0, 47.0, 20.0 ],
									"id" : "obj-80",
									"numinlets" : 2,
									"fontname" : "Monaco",
									"numoutlets" : 1
								}

							}
, 							{
								"box" : 								{
									"maxclass" : "newobj",
									"text" : "== 0",
									"outlettype" : [ "int" ],
									"fontsize" : 10.0,
									"patching_rect" : [ 441.0, 137.0, 35.0, 20.0 ],
									"id" : "obj-79",
									"numinlets" : 2,
									"fontname" : "Monaco",
									"numoutlets" : 1
								}

							}
, 							{
								"box" : 								{
									"maxclass" : "newobj",
									"text" : "== 255",
									"outlettype" : [ "int" ],
									"fontsize" : 10.0,
									"patching_rect" : [ 387.0, 137.0, 47.0, 20.0 ],
									"id" : "obj-78",
									"numinlets" : 2,
									"fontname" : "Monaco",
									"numoutlets" : 1
								}

							}
, 							{
								"box" : 								{
									"maxclass" : "newobj",
									"text" : "== 0",
									"outlettype" : [ "int" ],
									"fontsize" : 10.0,
									"patching_rect" : [ 350.0, 137.0, 35.0, 20.0 ],
									"id" : "obj-77",
									"numinlets" : 2,
									"fontname" : "Monaco",
									"numoutlets" : 1
								}

							}
, 							{
								"box" : 								{
									"maxclass" : "newobj",
									"text" : "route 3 4 5 6 7 8",
									"outlettype" : [ "", "", "", "", "", "", "" ],
									"fontsize" : 10.0,
									"patching_rect" : [ 50.0, 100.0, 213.0, 20.0 ],
									"id" : "obj-21",
									"numinlets" : 1,
									"fontname" : "Monaco",
									"numoutlets" : 7
								}

							}
, 							{
								"box" : 								{
									"maxclass" : "inlet",
									"outlettype" : [ "list" ],
									"patching_rect" : [ 50.0, 40.0, 25.0, 25.0 ],
									"id" : "obj-42",
									"numinlets" : 0,
									"numoutlets" : 1,
									"comment" : ""
								}

							}
 ],
						"lines" : [ 							{
								"patchline" : 								{
									"source" : [ "obj-15", 0 ],
									"destination" : [ "obj-4", 0 ],
									"hidden" : 0,
									"midpoints" : [  ]
								}

							}
, 							{
								"patchline" : 								{
									"source" : [ "obj-80", 0 ],
									"destination" : [ "obj-15", 0 ],
									"hidden" : 0,
									"midpoints" : [  ]
								}

							}
, 							{
								"patchline" : 								{
									"source" : [ "obj-16", 0 ],
									"destination" : [ "obj-5", 0 ],
									"hidden" : 0,
									"midpoints" : [  ]
								}

							}
, 							{
								"patchline" : 								{
									"source" : [ "obj-79", 0 ],
									"destination" : [ "obj-16", 0 ],
									"hidden" : 0,
									"midpoints" : [  ]
								}

							}
, 							{
								"patchline" : 								{
									"source" : [ "obj-14", 0 ],
									"destination" : [ "obj-6", 0 ],
									"hidden" : 0,
									"midpoints" : [  ]
								}

							}
, 							{
								"patchline" : 								{
									"source" : [ "obj-78", 0 ],
									"destination" : [ "obj-14", 0 ],
									"hidden" : 0,
									"midpoints" : [  ]
								}

							}
, 							{
								"patchline" : 								{
									"source" : [ "obj-13", 0 ],
									"destination" : [ "obj-7", 0 ],
									"hidden" : 0,
									"midpoints" : [  ]
								}

							}
, 							{
								"patchline" : 								{
									"source" : [ "obj-77", 0 ],
									"destination" : [ "obj-13", 0 ],
									"hidden" : 0,
									"midpoints" : [  ]
								}

							}
, 							{
								"patchline" : 								{
									"source" : [ "obj-9", 0 ],
									"destination" : [ "obj-17", 0 ],
									"hidden" : 0,
									"midpoints" : [  ]
								}

							}
, 							{
								"patchline" : 								{
									"source" : [ "obj-29", 0 ],
									"destination" : [ "obj-17", 0 ],
									"hidden" : 0,
									"midpoints" : [  ]
								}

							}
, 							{
								"patchline" : 								{
									"source" : [ "obj-9", 1 ],
									"destination" : [ "obj-29", 0 ],
									"hidden" : 0,
									"midpoints" : [  ]
								}

							}
, 							{
								"patchline" : 								{
									"source" : [ "obj-8", 0 ],
									"destination" : [ "obj-9", 0 ],
									"hidden" : 0,
									"midpoints" : [  ]
								}

							}
, 							{
								"patchline" : 								{
									"source" : [ "obj-41", 0 ],
									"destination" : [ "obj-8", 0 ],
									"hidden" : 0,
									"midpoints" : [  ]
								}

							}
, 							{
								"patchline" : 								{
									"source" : [ "obj-1", 0 ],
									"destination" : [ "obj-8", 0 ],
									"hidden" : 0,
									"midpoints" : [  ]
								}

							}
, 							{
								"patchline" : 								{
									"source" : [ "obj-3", 0 ],
									"destination" : [ "obj-8", 0 ],
									"hidden" : 0,
									"midpoints" : [  ]
								}

							}
, 							{
								"patchline" : 								{
									"source" : [ "obj-2", 0 ],
									"destination" : [ "obj-8", 0 ],
									"hidden" : 0,
									"midpoints" : [  ]
								}

							}
, 							{
								"patchline" : 								{
									"source" : [ "obj-7", 0 ],
									"destination" : [ "obj-8", 0 ],
									"hidden" : 0,
									"midpoints" : [  ]
								}

							}
, 							{
								"patchline" : 								{
									"source" : [ "obj-6", 0 ],
									"destination" : [ "obj-8", 0 ],
									"hidden" : 0,
									"midpoints" : [  ]
								}

							}
, 							{
								"patchline" : 								{
									"source" : [ "obj-5", 0 ],
									"destination" : [ "obj-8", 0 ],
									"hidden" : 0,
									"midpoints" : [  ]
								}

							}
, 							{
								"patchline" : 								{
									"source" : [ "obj-4", 0 ],
									"destination" : [ "obj-8", 0 ],
									"hidden" : 0,
									"midpoints" : [  ]
								}

							}
, 							{
								"patchline" : 								{
									"source" : [ "obj-21", 3 ],
									"destination" : [ "obj-2", 0 ],
									"hidden" : 0,
									"midpoints" : [  ]
								}

							}
, 							{
								"patchline" : 								{
									"source" : [ "obj-21", 2 ],
									"destination" : [ "obj-3", 0 ],
									"hidden" : 0,
									"midpoints" : [  ]
								}

							}
, 							{
								"patchline" : 								{
									"source" : [ "obj-21", 1 ],
									"destination" : [ "obj-1", 0 ],
									"hidden" : 0,
									"midpoints" : [  ]
								}

							}
, 							{
								"patchline" : 								{
									"source" : [ "obj-21", 4 ],
									"destination" : [ "obj-77", 0 ],
									"hidden" : 0,
									"midpoints" : [ 188.833328, 125.0, 359.5, 125.0 ]
								}

							}
, 							{
								"patchline" : 								{
									"source" : [ "obj-21", 4 ],
									"destination" : [ "obj-78", 0 ],
									"hidden" : 0,
									"midpoints" : [ 188.833328, 125.0, 396.5, 125.0 ]
								}

							}
, 							{
								"patchline" : 								{
									"source" : [ "obj-21", 5 ],
									"destination" : [ "obj-80", 0 ],
									"hidden" : 0,
									"midpoints" : [ 221.166672, 125.0, 489.5, 125.0 ]
								}

							}
, 							{
								"patchline" : 								{
									"source" : [ "obj-21", 5 ],
									"destination" : [ "obj-79", 0 ],
									"hidden" : 0,
									"midpoints" : [ 221.166672, 125.0, 450.5, 125.0 ]
								}

							}
, 							{
								"patchline" : 								{
									"source" : [ "obj-21", 0 ],
									"destination" : [ "obj-41", 0 ],
									"hidden" : 0,
									"midpoints" : [ 59.5, 157.0, 59.5, 157.0 ]
								}

							}
, 							{
								"patchline" : 								{
									"source" : [ "obj-42", 0 ],
									"destination" : [ "obj-21", 0 ],
									"hidden" : 0,
									"midpoints" : [  ]
								}

							}
 ]
					}
,
					"saved_object_attributes" : 					{
						"fontface" : 0,
						"default_fontname" : "Monaco",
						"fontsize" : 10.0,
						"default_fontsize" : 10.0,
						"fontname" : "Monaco",
						"default_fontface" : 0,
						"globalpatchername" : ""
					}

				}

			}
, 			{
				"box" : 				{
					"maxclass" : "newobj",
					"text" : "r #0_btom_8",
					"outlettype" : [ "" ],
					"fontsize" : 10.0,
					"patching_rect" : [ 611.0, 428.0, 77.0, 20.0 ],
					"id" : "obj-23",
					"numinlets" : 0,
					"fontname" : "Monaco",
					"numoutlets" : 1
				}

			}
, 			{
				"box" : 				{
					"maxclass" : "newobj",
					"text" : "r #0_btom_7",
					"outlettype" : [ "" ],
					"fontsize" : 10.0,
					"patching_rect" : [ 611.0, 386.0, 77.0, 20.0 ],
					"id" : "obj-24",
					"numinlets" : 0,
					"fontname" : "Monaco",
					"numoutlets" : 1
				}

			}
, 			{
				"box" : 				{
					"maxclass" : "newobj",
					"text" : "r #0_btom_6",
					"outlettype" : [ "" ],
					"fontsize" : 10.0,
					"patching_rect" : [ 611.0, 345.0, 77.0, 20.0 ],
					"id" : "obj-25",
					"numinlets" : 0,
					"fontname" : "Monaco",
					"numoutlets" : 1
				}

			}
, 			{
				"box" : 				{
					"maxclass" : "newobj",
					"text" : "r #0_btom_5",
					"outlettype" : [ "" ],
					"fontsize" : 10.0,
					"patching_rect" : [ 611.0, 303.0, 77.0, 20.0 ],
					"id" : "obj-26",
					"numinlets" : 0,
					"fontname" : "Monaco",
					"numoutlets" : 1
				}

			}
, 			{
				"box" : 				{
					"maxclass" : "newobj",
					"text" : "r #0_btom_4",
					"outlettype" : [ "" ],
					"fontsize" : 10.0,
					"patching_rect" : [ 611.0, 259.0, 77.0, 20.0 ],
					"id" : "obj-18",
					"numinlets" : 0,
					"fontname" : "Monaco",
					"numoutlets" : 1
				}

			}
, 			{
				"box" : 				{
					"maxclass" : "newobj",
					"text" : "r #0_btom_3",
					"outlettype" : [ "" ],
					"fontsize" : 10.0,
					"patching_rect" : [ 611.0, 217.0, 77.0, 20.0 ],
					"id" : "obj-22",
					"numinlets" : 0,
					"fontname" : "Monaco",
					"numoutlets" : 1
				}

			}
, 			{
				"box" : 				{
					"maxclass" : "newobj",
					"text" : "r #0_btom_2",
					"outlettype" : [ "" ],
					"fontsize" : 10.0,
					"patching_rect" : [ 611.0, 176.0, 77.0, 20.0 ],
					"id" : "obj-16",
					"numinlets" : 0,
					"fontname" : "Monaco",
					"numoutlets" : 1
				}

			}
, 			{
				"box" : 				{
					"maxclass" : "newobj",
					"text" : "r #0_btom_1",
					"outlettype" : [ "" ],
					"fontsize" : 10.0,
					"patching_rect" : [ 611.0, 134.0, 77.0, 20.0 ],
					"id" : "obj-15",
					"numinlets" : 0,
					"fontname" : "Monaco",
					"numoutlets" : 1
				}

			}
, 			{
				"box" : 				{
					"maxclass" : "newobj",
					"text" : "loadbang",
					"outlettype" : [ "bang" ],
					"fontsize" : 10.0,
					"patching_rect" : [ 1206.0, 22.0, 59.0, 20.0 ],
					"id" : "obj-20",
					"numinlets" : 1,
					"fontname" : "Monaco",
					"numoutlets" : 1
				}

			}
, 			{
				"box" : 				{
					"maxclass" : "newobj",
					"text" : "midiinfo",
					"outlettype" : [ "" ],
					"fontsize" : 10.0,
					"patching_rect" : [ 1206.0, 46.0, 59.0, 20.0 ],
					"id" : "obj-14",
					"numinlets" : 2,
					"fontname" : "Monaco",
					"numoutlets" : 1
				}

			}
, 			{
				"box" : 				{
					"maxclass" : "umenu",
					"varname" : "umenu[1]",
					"outlettype" : [ "int", "", "" ],
					"fontsize" : 10.0,
					"arrowlink" : 0,
					"presentation_rect" : [ 533.0, 13.0, 136.0, 20.0 ],
					"items" : [ "AU DLS Synth 1", ",", "MIDI_BUS Max_to_Live", ",", "MIDI_BUS Live_to_Max", ",", "MIDI_BUS from_Network", ",", "MIDI_BUS to_Network", ",", "MIDI_BUS BFT_Controller", ",", "Netzwerk Session 1", ",", "UNIT1 Port 1", ",", "nanoKONTROL2 CTRL", ",", "from MaxMSP 1", ",", "from MaxMSP 2", ",", "PCR PCR MIDI OUT", ",", "PCR" ],
					"types" : [  ],
					"patching_rect" : [ 1128.0, 81.0, 136.0, 20.0 ],
					"presentation" : 1,
					"id" : "obj-10",
					"numinlets" : 1,
					"fontname" : "Monaco",
					"rounded" : 0,
					"framecolor" : [ 1.0, 0.756863, 0.756863, 1.0 ],
					"numoutlets" : 3
				}

			}
, 			{
				"box" : 				{
					"maxclass" : "newobj",
					"varname" : "global_device",
					"text" : "pattr global_device",
					"outlettype" : [ "", "", "" ],
					"fontsize" : 10.0,
					"patching_rect" : [ 1075.0, 47.0, 125.0, 20.0 ],
					"id" : "obj-12",
					"numinlets" : 1,
					"fontname" : "Monaco",
					"numoutlets" : 3,
					"restore" : [ 1 ],
					"saved_object_attributes" : 					{
						"parameter_enable" : 0
					}

				}

			}
, 			{
				"box" : 				{
					"maxclass" : "bpatcher",
					"varname" : "midiMapSlot[6]",
					"bgcolor" : [ 0.92549, 0.835294, 0.647059, 1.0 ],
					"outlettype" : [ "int" ],
					"presentation_rect" : [ 204.0, 322.0, 482.0, 37.0 ],
					"patching_rect" : [ 697.0, 409.0, 482.0, 37.0 ],
					"presentation" : 1,
					"id" : "obj-6",
					"numinlets" : 2,
					"args" : [  ],
					"name" : "midiMapSlot.maxpat",
					"bgmode" : 2,
					"numoutlets" : 1
				}

			}
, 			{
				"box" : 				{
					"maxclass" : "bpatcher",
					"varname" : "midiMapSlot[7]",
					"bgcolor" : [ 0.92549, 0.835294, 0.647059, 1.0 ],
					"outlettype" : [ "int" ],
					"presentation_rect" : [ 204.0, 282.0, 482.0, 37.0 ],
					"patching_rect" : [ 697.0, 369.0, 482.0, 37.0 ],
					"presentation" : 1,
					"id" : "obj-8",
					"numinlets" : 2,
					"args" : [  ],
					"name" : "midiMapSlot.maxpat",
					"bgmode" : 2,
					"numoutlets" : 1
				}

			}
, 			{
				"box" : 				{
					"maxclass" : "bpatcher",
					"varname" : "midiMapSlot[3]",
					"bgcolor" : [ 0.92549, 0.835294, 0.647059, 1.0 ],
					"outlettype" : [ "int" ],
					"presentation_rect" : [ 204.0, 243.0, 482.0, 37.0 ],
					"patching_rect" : [ 697.0, 330.0, 482.0, 37.0 ],
					"presentation" : 1,
					"id" : "obj-2",
					"numinlets" : 2,
					"args" : [  ],
					"name" : "midiMapSlot.maxpat",
					"bgmode" : 2,
					"numoutlets" : 1
				}

			}
, 			{
				"box" : 				{
					"maxclass" : "bpatcher",
					"varname" : "midiMapSlot[4]",
					"bgcolor" : [ 0.92549, 0.835294, 0.647059, 1.0 ],
					"outlettype" : [ "int" ],
					"presentation_rect" : [ 204.0, 203.0, 482.0, 37.0 ],
					"patching_rect" : [ 697.0, 290.0, 482.0, 37.0 ],
					"presentation" : 1,
					"id" : "obj-3",
					"numinlets" : 2,
					"args" : [  ],
					"name" : "midiMapSlot.maxpat",
					"bgmode" : 2,
					"numoutlets" : 1
				}

			}
, 			{
				"box" : 				{
					"maxclass" : "bpatcher",
					"varname" : "midiMapSlot[5]",
					"bgcolor" : [ 0.92549, 0.835294, 0.647059, 1.0 ],
					"outlettype" : [ "int" ],
					"presentation_rect" : [ 204.0, 163.0, 482.0, 37.0 ],
					"patching_rect" : [ 697.0, 250.0, 482.0, 37.0 ],
					"presentation" : 1,
					"id" : "obj-4",
					"numinlets" : 2,
					"args" : [  ],
					"name" : "midiMapSlot.maxpat",
					"bgmode" : 2,
					"numoutlets" : 1
				}

			}
, 			{
				"box" : 				{
					"maxclass" : "bpatcher",
					"varname" : "midiMapSlot[2]",
					"bgcolor" : [ 0.92549, 0.835294, 0.647059, 1.0 ],
					"outlettype" : [ "int" ],
					"presentation_rect" : [ 204.0, 123.0, 482.0, 37.0 ],
					"patching_rect" : [ 697.0, 210.0, 482.0, 37.0 ],
					"presentation" : 1,
					"id" : "obj-126",
					"numinlets" : 2,
					"args" : [  ],
					"name" : "midiMapSlot.maxpat",
					"bgmode" : 2,
					"numoutlets" : 1
				}

			}
, 			{
				"box" : 				{
					"maxclass" : "bpatcher",
					"varname" : "midiMapSlot[1]",
					"bgcolor" : [ 0.92549, 0.835294, 0.647059, 1.0 ],
					"outlettype" : [ "int" ],
					"presentation_rect" : [ 204.0, 83.0, 482.0, 37.0 ],
					"patching_rect" : [ 697.0, 170.0, 482.0, 37.0 ],
					"presentation" : 1,
					"id" : "obj-125",
					"numinlets" : 2,
					"args" : [  ],
					"name" : "midiMapSlot.maxpat",
					"bgmode" : 2,
					"numoutlets" : 1
				}

			}
, 			{
				"box" : 				{
					"maxclass" : "bpatcher",
					"varname" : "midiMapSlot",
					"bgcolor" : [ 0.92549, 0.835294, 0.647059, 1.0 ],
					"outlettype" : [ "int" ],
					"presentation_rect" : [ 204.0, 43.0, 482.0, 37.0 ],
					"patching_rect" : [ 697.0, 130.0, 482.0, 37.0 ],
					"presentation" : 1,
					"id" : "obj-124",
					"numinlets" : 2,
					"args" : [  ],
					"name" : "midiMapSlot.maxpat",
					"bgmode" : 2,
					"numoutlets" : 1
				}

			}
, 			{
				"box" : 				{
					"maxclass" : "umenu",
					"varname" : "umenu[7]",
					"outlettype" : [ "int", "", "" ],
					"fontsize" : 10.0,
					"arrowlink" : 0,
					"presentation_rect" : [ 364.0, 13.0, 42.0, 20.0 ],
					"items" : [ 1, ",", 2, ",", 3, ",", 4, ",", 5, ",", 6, ",", 7, ",", 8, ",", 9, ",", 10, ",", 11, ",", 12, ",", 13, ",", 14, ",", 15, ",", 16 ],
					"types" : [  ],
					"patching_rect" : [ 989.0, 81.0, 42.0, 20.0 ],
					"presentation" : 1,
					"id" : "obj-96",
					"numinlets" : 1,
					"fontname" : "Monaco",
					"rounded" : 0,
					"framecolor" : [ 1.0, 0.756863, 0.756863, 1.0 ],
					"numoutlets" : 3
				}

			}
, 			{
				"box" : 				{
					"maxclass" : "newobj",
					"varname" : "global_midichan",
					"text" : "pattr global_midichan",
					"outlettype" : [ "", "", "" ],
					"fontsize" : 10.0,
					"patching_rect" : [ 930.0, 47.0, 137.0, 20.0 ],
					"id" : "obj-95",
					"numinlets" : 1,
					"fontname" : "Monaco",
					"numoutlets" : 3,
					"restore" : [ 0 ],
					"saved_object_attributes" : 					{
						"parameter_enable" : 0
					}

				}

			}
, 			{
				"box" : 				{
					"maxclass" : "newobj",
					"text" : "midiout",
					"fontsize" : 10.0,
					"patching_rect" : [ 697.0, 462.0, 53.0, 20.0 ],
					"id" : "obj-94",
					"numinlets" : 1,
					"fontname" : "Monaco",
					"numoutlets" : 0
				}

			}
, 			{
				"box" : 				{
					"maxclass" : "newobj",
					"text" : "loadbang",
					"outlettype" : [ "bang" ],
					"fontsize" : 10.0,
					"patching_rect" : [ 995.0, 521.0, 59.0, 20.0 ],
					"id" : "obj-58",
					"numinlets" : 1,
					"fontname" : "Monaco",
					"numoutlets" : 1
				}

			}
, 			{
				"box" : 				{
					"maxclass" : "newobj",
					"text" : "closebang",
					"outlettype" : [ "bang" ],
					"fontsize" : 10.0,
					"patching_rect" : [ 865.0, 521.0, 65.0, 20.0 ],
					"id" : "obj-59",
					"numinlets" : 0,
					"fontname" : "Monaco",
					"numoutlets" : 1
				}

			}
, 			{
				"box" : 				{
					"maxclass" : "message",
					"text" : "read MIDI-map.json, 1",
					"outlettype" : [ "" ],
					"fontsize" : 10.0,
					"patching_rect" : [ 995.0, 547.0, 137.0, 18.0 ],
					"id" : "obj-5",
					"numinlets" : 2,
					"fontname" : "Monaco",
					"numoutlets" : 1
				}

			}
, 			{
				"box" : 				{
					"maxclass" : "message",
					"text" : "store 1, writeagain",
					"outlettype" : [ "" ],
					"fontsize" : 10.0,
					"patching_rect" : [ 865.0, 547.0, 125.0, 18.0 ],
					"id" : "obj-64",
					"numinlets" : 2,
					"fontname" : "Monaco",
					"numoutlets" : 1
				}

			}
, 			{
				"box" : 				{
					"maxclass" : "newobj",
					"varname" : "Midi_maaping",
					"text" : "pattrstorage Midi_maaping",
					"outlettype" : [ "" ],
					"fontsize" : 10.0,
					"patching_rect" : [ 865.0, 583.0, 161.0, 20.0 ],
					"id" : "obj-65",
					"numinlets" : 1,
					"fontname" : "Monaco",
					"numoutlets" : 1,
					"autorestore" : "MIDI-map.json",
					"interp" : 					{
						"midiMapSlot::ctl_number" : [ 0, 0.0 ],
						"midiMapSlot::ctl_press" : [ 0, 0.0 ],
						"midiMapSlot::ctl_rel" : [ 0, 0.0 ],
						"midiMapSlot::chan" : [ 0, 0.0 ],
						"midiMapSlot::note_number" : [ 0, 0.0 ],
						"midiMapSlot::message_type" : [ 0, 0.0 ],
						"midiMapSlot::note_vel" : [ 0, 0.0 ]
					}
,
					"saved_object_attributes" : 					{
						"storage_rect" : [ 583, 69, 1034, 197 ],
						"client_rect" : [ 1456, 31, 2207, 706 ],
						"parameter_enable" : 0,
						"paraminitmode" : 0
					}

				}

			}
, 			{
				"box" : 				{
					"maxclass" : "newobj",
					"varname" : "license_info",
					"text" : "p license_info",
					"fontsize" : 6.482542,
					"presentation_rect" : [ 225.0, 394.0, 75.0, 15.0 ],
					"hidden" : 1,
					"patching_rect" : [ 626.0, 605.0, 75.0, 15.0 ],
					"presentation" : 1,
					"id" : "obj-9",
					"numinlets" : 2,
					"fontname" : "Monaco",
					"numoutlets" : 0,
					"patcher" : 					{
						"fileversion" : 1,
						"rect" : [ 380.0, 256.0, 524.0, 292.0 ],
						"bgcolor" : [ 0.807843, 0.894118, 0.956863, 1.0 ],
						"bglocked" : 0,
						"defrect" : [ 380.0, 256.0, 524.0, 292.0 ],
						"openrect" : [ 0.0, 0.0, 0.0, 0.0 ],
						"openinpresentation" : 1,
						"default_fontsize" : 11.0,
						"default_fontface" : 0,
						"default_fontname" : "Monaco",
						"gridonopen" : 0,
						"gridsize" : [ 15.0, 15.0 ],
						"gridsnaponopen" : 0,
						"toolbarvisible" : 1,
						"boxanimatetime" : 200,
						"imprint" : 0,
						"enablehscroll" : 1,
						"enablevscroll" : 1,
						"devicewidth" : 0.0,
						"boxes" : [ 							{
								"box" : 								{
									"maxclass" : "newobj",
									"text" : "t front b",
									"outlettype" : [ "front", "bang" ],
									"fontsize" : 11.0,
									"patching_rect" : [ 25.0, 330.0, 70.0, 21.0 ],
									"id" : "obj-12",
									"numinlets" : 1,
									"fontname" : "Monaco",
									"numoutlets" : 2
								}

							}
, 							{
								"box" : 								{
									"maxclass" : "newobj",
									"text" : "p positioner",
									"outlettype" : [ "" ],
									"fontsize" : 11.0,
									"patching_rect" : [ 125.0, 383.0, 90.0, 21.0 ],
									"id" : "obj-8",
									"numinlets" : 1,
									"fontname" : "Monaco",
									"numoutlets" : 1,
									"patcher" : 									{
										"fileversion" : 1,
										"rect" : [ 25.0, 69.0, 283.0, 336.0 ],
										"bglocked" : 0,
										"defrect" : [ 25.0, 69.0, 283.0, 336.0 ],
										"openrect" : [ 0.0, 0.0, 0.0, 0.0 ],
										"openinpresentation" : 0,
										"default_fontsize" : 11.0,
										"default_fontface" : 0,
										"default_fontname" : "Monaco",
										"gridonopen" : 0,
										"gridsize" : [ 15.0, 15.0 ],
										"gridsnaponopen" : 0,
										"toolbarvisible" : 1,
										"boxanimatetime" : 200,
										"imprint" : 0,
										"enablehscroll" : 1,
										"enablevscroll" : 1,
										"devicewidth" : 0.0,
										"boxes" : [ 											{
												"box" : 												{
													"maxclass" : "newobj",
													"text" : "pack i i i i",
													"outlettype" : [ "" ],
													"fontsize" : 11.0,
													"patching_rect" : [ 62.0, 205.0, 151.0, 21.0 ],
													"id" : "obj-36",
													"numinlets" : 4,
													"fontname" : "Monaco",
													"numoutlets" : 1
												}

											}
, 											{
												"box" : 												{
													"maxclass" : "newobj",
													"text" : "+ 264",
													"outlettype" : [ "int" ],
													"fontsize" : 11.0,
													"patching_rect" : [ 106.0, 179.0, 44.0, 21.0 ],
													"id" : "obj-35",
													"numinlets" : 2,
													"fontname" : "Monaco",
													"numoutlets" : 1
												}

											}
, 											{
												"box" : 												{
													"maxclass" : "newobj",
													"text" : "- 260",
													"outlettype" : [ "int" ],
													"fontsize" : 11.0,
													"patching_rect" : [ 62.0, 179.0, 44.0, 21.0 ],
													"id" : "obj-34",
													"numinlets" : 2,
													"fontname" : "Monaco",
													"numoutlets" : 1
												}

											}
, 											{
												"box" : 												{
													"maxclass" : "newobj",
													"text" : "+ 148",
													"outlettype" : [ "int" ],
													"fontsize" : 11.0,
													"patching_rect" : [ 194.0, 179.0, 44.0, 21.0 ],
													"id" : "obj-33",
													"numinlets" : 2,
													"fontname" : "Monaco",
													"numoutlets" : 1
												}

											}
, 											{
												"box" : 												{
													"maxclass" : "newobj",
													"text" : "- 144",
													"outlettype" : [ "int" ],
													"fontsize" : 11.0,
													"patching_rect" : [ 150.0, 179.0, 44.0, 21.0 ],
													"id" : "obj-32",
													"numinlets" : 2,
													"fontname" : "Monaco",
													"numoutlets" : 1
												}

											}
, 											{
												"box" : 												{
													"maxclass" : "newobj",
													"text" : "/ 2",
													"outlettype" : [ "int" ],
													"fontsize" : 11.0,
													"patching_rect" : [ 139.0, 150.0, 32.5, 21.0 ],
													"id" : "obj-26",
													"numinlets" : 2,
													"fontname" : "Monaco",
													"numoutlets" : 1
												}

											}
, 											{
												"box" : 												{
													"maxclass" : "newobj",
													"text" : "/ 2",
													"outlettype" : [ "int" ],
													"fontsize" : 11.0,
													"patching_rect" : [ 106.0, 150.0, 32.5, 21.0 ],
													"id" : "obj-25",
													"numinlets" : 2,
													"fontname" : "Monaco",
													"numoutlets" : 1
												}

											}
, 											{
												"box" : 												{
													"maxclass" : "newobj",
													"text" : "unpack i i i i",
													"outlettype" : [ "int", "int", "int", "int" ],
													"fontsize" : 11.0,
													"patching_rect" : [ 50.0, 126.0, 103.0, 21.0 ],
													"id" : "obj-24",
													"numinlets" : 1,
													"fontname" : "Monaco",
													"numoutlets" : 4
												}

											}
, 											{
												"box" : 												{
													"maxclass" : "newobj",
													"text" : "screensize",
													"outlettype" : [ "list", "list" ],
													"fontsize" : 11.0,
													"patching_rect" : [ 50.0, 100.0, 77.0, 21.0 ],
													"id" : "obj-19",
													"numinlets" : 1,
													"fontname" : "Monaco",
													"numoutlets" : 2
												}

											}
, 											{
												"box" : 												{
													"maxclass" : "inlet",
													"outlettype" : [ "bang" ],
													"patching_rect" : [ 50.0, 40.0, 25.0, 25.0 ],
													"id" : "obj-3",
													"numinlets" : 0,
													"numoutlets" : 1,
													"comment" : ""
												}

											}
, 											{
												"box" : 												{
													"maxclass" : "outlet",
													"patching_rect" : [ 62.0, 286.0, 25.0, 25.0 ],
													"id" : "obj-6",
													"numinlets" : 1,
													"numoutlets" : 0,
													"comment" : ""
												}

											}
 ],
										"lines" : [ 											{
												"patchline" : 												{
													"source" : [ "obj-3", 0 ],
													"destination" : [ "obj-19", 0 ],
													"hidden" : 0,
													"midpoints" : [  ]
												}

											}
, 											{
												"patchline" : 												{
													"source" : [ "obj-19", 0 ],
													"destination" : [ "obj-24", 0 ],
													"hidden" : 0,
													"midpoints" : [  ]
												}

											}
, 											{
												"patchline" : 												{
													"source" : [ "obj-24", 2 ],
													"destination" : [ "obj-25", 0 ],
													"hidden" : 0,
													"midpoints" : [  ]
												}

											}
, 											{
												"patchline" : 												{
													"source" : [ "obj-24", 3 ],
													"destination" : [ "obj-26", 0 ],
													"hidden" : 0,
													"midpoints" : [  ]
												}

											}
, 											{
												"patchline" : 												{
													"source" : [ "obj-25", 0 ],
													"destination" : [ "obj-35", 0 ],
													"hidden" : 0,
													"midpoints" : [  ]
												}

											}
, 											{
												"patchline" : 												{
													"source" : [ "obj-25", 0 ],
													"destination" : [ "obj-34", 0 ],
													"hidden" : 0,
													"midpoints" : [  ]
												}

											}
, 											{
												"patchline" : 												{
													"source" : [ "obj-34", 0 ],
													"destination" : [ "obj-36", 0 ],
													"hidden" : 0,
													"midpoints" : [  ]
												}

											}
, 											{
												"patchline" : 												{
													"source" : [ "obj-35", 0 ],
													"destination" : [ "obj-36", 1 ],
													"hidden" : 0,
													"midpoints" : [  ]
												}

											}
, 											{
												"patchline" : 												{
													"source" : [ "obj-36", 0 ],
													"destination" : [ "obj-6", 0 ],
													"hidden" : 0,
													"midpoints" : [  ]
												}

											}
, 											{
												"patchline" : 												{
													"source" : [ "obj-26", 0 ],
													"destination" : [ "obj-33", 0 ],
													"hidden" : 0,
													"midpoints" : [  ]
												}

											}
, 											{
												"patchline" : 												{
													"source" : [ "obj-33", 0 ],
													"destination" : [ "obj-36", 3 ],
													"hidden" : 0,
													"midpoints" : [  ]
												}

											}
, 											{
												"patchline" : 												{
													"source" : [ "obj-26", 0 ],
													"destination" : [ "obj-32", 0 ],
													"hidden" : 0,
													"midpoints" : [  ]
												}

											}
, 											{
												"patchline" : 												{
													"source" : [ "obj-32", 0 ],
													"destination" : [ "obj-36", 2 ],
													"hidden" : 0,
													"midpoints" : [  ]
												}

											}
 ]
									}
,
									"saved_object_attributes" : 									{
										"fontface" : 0,
										"default_fontname" : "Monaco",
										"fontsize" : 11.0,
										"default_fontsize" : 11.0,
										"fontname" : "Monaco",
										"default_fontface" : 0,
										"globalpatchername" : ""
									}

								}

							}
, 							{
								"box" : 								{
									"maxclass" : "message",
									"text" : "window flags nozoom, window flags nogrow, window size $1 $3 $2 $4, window exec",
									"outlettype" : [ "" ],
									"fontsize" : 11.0,
									"patching_rect" : [ 125.0, 407.0, 525.0, 19.0 ],
									"id" : "obj-18",
									"numinlets" : 2,
									"fontname" : "Monaco",
									"numoutlets" : 1
								}

							}
, 							{
								"box" : 								{
									"maxclass" : "message",
									"text" : "window flags zoom, window flags grow, window constrain 0 0 1280 800, window exec",
									"linecount" : 2,
									"outlettype" : [ "" ],
									"fontsize" : 11.0,
									"patching_rect" : [ 310.0, 323.0, 400.0, 34.0 ],
									"id" : "obj-17",
									"numinlets" : 2,
									"fontname" : "Monaco",
									"numoutlets" : 1
								}

							}
, 							{
								"box" : 								{
									"maxclass" : "comment",
									"text" : "additional Credit: -",
									"fontsize" : 11.0,
									"presentation_rect" : [ 8.0, 254.0, 282.0, 21.0 ],
									"frgb" : [ 0.172549, 0.384314, 0.176471, 1.0 ],
									"patching_rect" : [ 12.0, 264.0, 282.0, 21.0 ],
									"presentation" : 1,
									"id" : "obj-11",
									"numinlets" : 1,
									"fontname" : "Monaco",
									"textcolor" : [ 0.172549, 0.384314, 0.176471, 1.0 ],
									"numoutlets" : 0
								}

							}
, 							{
								"box" : 								{
									"maxclass" : "comment",
									"text" : "created 2014 by Tom Orr for Max5, mail@tomorr.info",
									"linecount" : 2,
									"presentation_linecount" : 2,
									"fontsize" : 11.0,
									"presentation_rect" : [ 8.0, 6.0, 243.0, 36.0 ],
									"frgb" : [ 0.172549, 0.384314, 0.176471, 1.0 ],
									"patching_rect" : [ 12.0, 16.0, 282.0, 36.0 ],
									"presentation" : 1,
									"id" : "obj-10",
									"numinlets" : 1,
									"fontname" : "Monaco",
									"textcolor" : [ 0.172549, 0.384314, 0.176471, 1.0 ],
									"numoutlets" : 0
								}

							}
, 							{
								"box" : 								{
									"maxclass" : "comment",
									"text" : "This program is free software; you can redistribute it and/or\nmodify it under the terms of the GNU General Public License\nas published by the Free Software Foundation; either version 2\nof the License, or (at your option) any later version.\n\nThis program is distributed in the hope that it will be useful,\nbut WITHOUT ANY WARRANTY; without even the implied warranty of\nMERCHANTABILITY or FITNESS FOR A PARTICULAR PURPOSE. See the\nGNU General Public License for more details.\n\nYou should have received a copy of the GNU General Public License\nalong with this program; if not, write to the Free Software\nFoundation, Inc., 59 Temple Place - Suite 330, Boston, MA  02111-1307, USA.",
									"linecount" : 13,
									"presentation_linecount" : 13,
									"fontsize" : 11.0,
									"presentation_rect" : [ 8.0, 47.0, 510.0, 197.0 ],
									"frgb" : [ 0.172549, 0.384314, 0.176471, 1.0 ],
									"patching_rect" : [ 12.0, 57.0, 510.0, 197.0 ],
									"presentation" : 1,
									"id" : "obj-9",
									"numinlets" : 1,
									"fontname" : "Monaco",
									"textcolor" : [ 0.172549, 0.384314, 0.176471, 1.0 ],
									"numoutlets" : 0
								}

							}
, 							{
								"box" : 								{
									"maxclass" : "inlet",
									"varname" : "bang",
									"outlettype" : [ "" ],
									"patching_rect" : [ 310.0, 295.0, 25.0, 25.0 ],
									"id" : "obj-5",
									"numinlets" : 0,
									"numoutlets" : 1,
									"comment" : ""
								}

							}
, 							{
								"box" : 								{
									"maxclass" : "message",
									"text" : "wclose",
									"outlettype" : [ "" ],
									"fontsize" : 11.0,
									"patching_rect" : [ 193.0, 329.0, 50.0, 19.0 ],
									"id" : "obj-7",
									"numinlets" : 2,
									"fontname" : "Monaco",
									"numoutlets" : 1
								}

							}
, 							{
								"box" : 								{
									"maxclass" : "textbutton",
									"bgcolor" : [ 0.690196, 0.835294, 0.941176, 1.0 ],
									"bgoncolor" : [ 0.956863, 0.870588, 0.686275, 1.0 ],
									"textoveroncolor" : [ 0.0, 0.0, 0.0, 1.0 ],
									"outlettype" : [ "", "", "int" ],
									"blinktime" : 102,
									"fontsize" : 11.0,
									"textoncolor" : [ 0.0, 0.0, 0.0, 1.0 ],
									"presentation_rect" : [ 258.0, 9.0, 178.0, 27.0 ],
									"texton" : "on",
									"patching_rect" : [ 193.0, 302.0, 100.0, 20.0 ],
									"bgovercolor" : [ 0.65098, 0.737255, 0.8, 1.0 ],
									"presentation" : 1,
									"id" : "obj-39",
									"numinlets" : 1,
									"fontname" : "Monaco",
									"rounded" : 4.0,
									"text" : "close",
									"bgoveroncolor" : [ 0.768627, 0.701961, 0.560784, 1.0 ],
									"numoutlets" : 3,
									"bordercolor" : [ 0.537255, 0.537255, 0.537255, 1.0 ],
									"borderoncolor" : [ 0.537255, 0.537255, 0.537255, 1.0 ]
								}

							}
, 							{
								"box" : 								{
									"maxclass" : "newobj",
									"text" : "thispatcher",
									"outlettype" : [ "", "" ],
									"fontsize" : 11.0,
									"patching_rect" : [ 25.0, 401.0, 83.0, 21.0 ],
									"id" : "obj-2",
									"numinlets" : 1,
									"fontname" : "Monaco",
									"numoutlets" : 2,
									"save" : [ "#N", "thispatcher", ";", "#Q", "end", ";" ]
								}

							}
, 							{
								"box" : 								{
									"maxclass" : "inlet",
									"hint" : "bang to open and bring to front",
									"outlettype" : [ "bang" ],
									"patching_rect" : [ 25.0, 299.0, 25.0, 25.0 ],
									"id" : "obj-1",
									"numinlets" : 0,
									"numoutlets" : 1,
									"comment" : ""
								}

							}
 ],
						"lines" : [ 							{
								"patchline" : 								{
									"source" : [ "obj-5", 0 ],
									"destination" : [ "obj-17", 0 ],
									"hidden" : 0,
									"midpoints" : [  ]
								}

							}
, 							{
								"patchline" : 								{
									"source" : [ "obj-39", 0 ],
									"destination" : [ "obj-7", 0 ],
									"hidden" : 0,
									"midpoints" : [  ]
								}

							}
, 							{
								"patchline" : 								{
									"source" : [ "obj-7", 0 ],
									"destination" : [ "obj-2", 0 ],
									"hidden" : 0,
									"midpoints" : [ 202.5, 374.0, 34.5, 374.0 ]
								}

							}
, 							{
								"patchline" : 								{
									"source" : [ "obj-18", 0 ],
									"destination" : [ "obj-2", 0 ],
									"hidden" : 0,
									"midpoints" : [ 134.5, 429.0, 12.0, 429.0, 12.0, 366.0, 34.5, 366.0 ]
								}

							}
, 							{
								"patchline" : 								{
									"source" : [ "obj-17", 0 ],
									"destination" : [ "obj-2", 0 ],
									"hidden" : 0,
									"midpoints" : [ 319.5, 378.5, 34.5, 378.5 ]
								}

							}
, 							{
								"patchline" : 								{
									"source" : [ "obj-8", 0 ],
									"destination" : [ "obj-18", 0 ],
									"hidden" : 0,
									"midpoints" : [  ]
								}

							}
, 							{
								"patchline" : 								{
									"source" : [ "obj-1", 0 ],
									"destination" : [ "obj-12", 0 ],
									"hidden" : 0,
									"midpoints" : [  ]
								}

							}
, 							{
								"patchline" : 								{
									"source" : [ "obj-12", 0 ],
									"destination" : [ "obj-2", 0 ],
									"hidden" : 0,
									"midpoints" : [  ]
								}

							}
, 							{
								"patchline" : 								{
									"source" : [ "obj-12", 1 ],
									"destination" : [ "obj-8", 0 ],
									"hidden" : 0,
									"midpoints" : [  ]
								}

							}
 ]
					}
,
					"saved_object_attributes" : 					{
						"fontface" : 0,
						"default_fontname" : "Monaco",
						"fontsize" : 11.0,
						"default_fontsize" : 11.0,
						"fontname" : "Monaco",
						"default_fontface" : 0,
						"globalpatchername" : ""
					}

				}

			}
, 			{
				"box" : 				{
					"maxclass" : "ubutton",
					"hint" : "click for license information",
					"outlettype" : [ "bang", "bang", "", "int" ],
					"presentation_rect" : [ 229.0, 370.0, 201.0, 21.0 ],
					"hltcolor" : [ 0.92549, 0.835294, 0.647059, 0.0 ],
					"patching_rect" : [ 630.0, 581.0, 201.0, 21.0 ],
					"presentation" : 1,
					"id" : "obj-7",
					"numinlets" : 1,
					"numoutlets" : 4,
					"handoff" : ""
				}

			}
, 			{
				"box" : 				{
					"maxclass" : "panel",
					"bgcolor" : [ 0.92549, 0.835294, 0.647059, 1.0 ],
					"presentation_rect" : [ 184.0, 386.0, 239.0, 5.0 ],
					"patching_rect" : [ 585.0, 597.0, 239.0, 5.0 ],
					"border" : 1,
					"presentation" : 1,
					"id" : "obj-19",
					"numinlets" : 1,
					"numoutlets" : 0
				}

			}
, 			{
				"box" : 				{
					"maxclass" : "comment",
					"text" : "mail@tomorr.info",
					"fontsize" : 8.0,
					"presentation_rect" : [ 341.0, 373.0, 88.0, 17.0 ],
					"frgb" : [ 0.360784, 0.360784, 0.360784, 1.0 ],
					"patching_rect" : [ 742.0, 584.0, 88.0, 17.0 ],
					"presentation" : 1,
					"id" : "obj-13",
					"numinlets" : 1,
					"fontname" : "Monaco",
					"textcolor" : [ 0.360784, 0.360784, 0.360784, 1.0 ],
					"numoutlets" : 0
				}

			}
, 			{
				"box" : 				{
					"maxclass" : "comment",
					"text" : "by Tom Orr, 2014",
					"fontsize" : 11.0,
					"presentation_rect" : [ 226.0, 370.0, 117.0, 21.0 ],
					"frgb" : [ 0.360784, 0.360784, 0.360784, 1.0 ],
					"patching_rect" : [ 627.0, 581.0, 117.0, 21.0 ],
					"presentation" : 1,
					"id" : "obj-11",
					"numinlets" : 1,
					"fontname" : "Monaco",
					"textcolor" : [ 0.360784, 0.360784, 0.360784, 1.0 ],
					"numoutlets" : 0
				}

			}
, 			{
				"box" : 				{
					"maxclass" : "toggle",
					"bgcolor" : [ 1.0, 0.0, 0.0, 1.0 ],
					"outlettype" : [ "int" ],
					"ignoreclick" : 1,
					"presentation_rect" : [ 94.057053, 233.927643, 19.959999, 19.959999 ],
					"patching_rect" : [ 157.057053, 477.927643, 19.959999, 19.959999 ],
					"presentation" : 1,
					"id" : "obj-70",
					"numinlets" : 1,
					"numoutlets" : 1
				}

			}
, 			{
				"box" : 				{
					"maxclass" : "toggle",
					"bgcolor" : [ 1.0, 0.0, 0.0, 1.0 ],
					"outlettype" : [ "int" ],
					"ignoreclick" : 1,
					"presentation_rect" : [ 140.11409, 199.309906, 19.959999, 19.959999 ],
					"patching_rect" : [ 203.11409, 443.309906, 19.959999, 19.959999 ],
					"presentation" : 1,
					"id" : "obj-69",
					"numinlets" : 1,
					"numoutlets" : 1
				}

			}
, 			{
				"box" : 				{
					"maxclass" : "toggle",
					"bgcolor" : [ 1.0, 0.0, 0.0, 1.0 ],
					"outlettype" : [ "int" ],
					"ignoreclick" : 1,
					"presentation_rect" : [ 96.057053, 167.0, 19.959999, 19.959999 ],
					"patching_rect" : [ 157.057053, 411.0, 19.959999, 19.959999 ],
					"presentation" : 1,
					"id" : "obj-68",
					"numinlets" : 1,
					"numoutlets" : 1
				}

			}
, 			{
				"box" : 				{
					"maxclass" : "toggle",
					"bgcolor" : [ 1.0, 0.0, 0.0, 1.0 ],
					"outlettype" : [ "int" ],
					"ignoreclick" : 1,
					"presentation_rect" : [ 50.0, 199.309906, 19.959999, 19.959999 ],
					"patching_rect" : [ 111.0, 443.309906, 19.959999, 19.959999 ],
					"presentation" : 1,
					"id" : "obj-67",
					"numinlets" : 1,
					"numoutlets" : 1
				}

			}
, 			{
				"box" : 				{
					"maxclass" : "toggle",
					"bgcolor" : [ 1.0, 0.0, 0.0, 1.0 ],
					"outlettype" : [ "int" ],
					"ignoreclick" : 1,
					"presentation_rect" : [ 111.040009, 129.0, 24.959999, 24.959999 ],
					"patching_rect" : [ 174.040009, 332.0, 24.959999, 24.959999 ],
					"presentation" : 1,
					"id" : "obj-62",
					"numinlets" : 1,
					"numoutlets" : 1
				}

			}
, 			{
				"box" : 				{
					"maxclass" : "toggle",
					"bgcolor" : [ 1.0, 0.0, 0.0, 1.0 ],
					"outlettype" : [ "int" ],
					"ignoreclick" : 1,
					"presentation_rect" : [ 72.0, 129.0, 24.959999, 24.959999 ],
					"patching_rect" : [ 135.0, 332.0, 24.959999, 24.959999 ],
					"presentation" : 1,
					"id" : "obj-63",
					"numinlets" : 1,
					"numoutlets" : 1
				}

			}
, 			{
				"box" : 				{
					"maxclass" : "toggle",
					"bgcolor" : [ 1.0, 0.0, 0.0, 1.0 ],
					"outlettype" : [ "int" ],
					"ignoreclick" : 1,
					"presentation_rect" : [ 116.0, 85.0, 39.0, 39.0 ],
					"patching_rect" : [ 179.0, 288.0, 39.0, 39.0 ],
					"presentation" : 1,
					"id" : "obj-61",
					"numinlets" : 1,
					"numoutlets" : 1
				}

			}
, 			{
				"box" : 				{
					"maxclass" : "toggle",
					"bgcolor" : [ 1.0, 0.0, 0.0, 1.0 ],
					"outlettype" : [ "int" ],
					"ignoreclick" : 1,
					"presentation_rect" : [ 55.0, 85.0, 39.0, 39.0 ],
					"patching_rect" : [ 118.0, 288.0, 39.0, 39.0 ],
					"presentation" : 1,
					"id" : "obj-60",
					"numinlets" : 1,
					"numoutlets" : 1
				}

			}
, 			{
				"box" : 				{
					"maxclass" : "newobj",
					"text" : "loadbang",
					"outlettype" : [ "bang" ],
					"fontsize" : 10.0,
					"patching_rect" : [ 77.0, 13.0, 59.0, 20.0 ],
					"id" : "obj-56",
					"numinlets" : 1,
					"fontname" : "Monaco",
					"numoutlets" : 1
				}

			}
, 			{
				"box" : 				{
					"maxclass" : "message",
					"text" : "\"SPEED-LINK Competition Pro\"",
					"outlettype" : [ "" ],
					"fontsize" : 10.0,
					"patching_rect" : [ 77.0, 38.0, 181.0, 18.0 ],
					"id" : "obj-55",
					"numinlets" : 2,
					"fontname" : "Monaco",
					"numoutlets" : 1
				}

			}
, 			{
				"box" : 				{
					"maxclass" : "newobj",
					"text" : "t b l",
					"outlettype" : [ "bang", "" ],
					"fontsize" : 10.0,
					"patching_rect" : [ 77.0, 60.0, 41.0, 20.0 ],
					"id" : "obj-52",
					"numinlets" : 1,
					"fontname" : "Monaco",
					"numoutlets" : 2
				}

			}
, 			{
				"box" : 				{
					"maxclass" : "message",
					"text" : "poll 10",
					"outlettype" : [ "" ],
					"fontsize" : 10.0,
					"patching_rect" : [ 77.0, 85.0, 53.0, 18.0 ],
					"id" : "obj-51",
					"numinlets" : 2,
					"fontname" : "Monaco",
					"numoutlets" : 1
				}

			}
, 			{
				"box" : 				{
					"maxclass" : "button",
					"bgcolor" : [ 0.913725, 0.913725, 0.913725, 1.0 ],
					"outlettype" : [ "bang" ],
					"ignoreclick" : 1,
					"presentation_rect" : [ 30.0, 48.0, 20.0, 20.0 ],
					"patching_rect" : [ 48.0, 150.0, 20.0, 20.0 ],
					"presentation" : 1,
					"id" : "obj-49",
					"numinlets" : 1,
					"numoutlets" : 1,
					"outlinecolor" : [ 0.0, 0.0, 0.0, 1.0 ],
					"blinkcolor" : [ 0.572549, 0.768627, 0.909804, 1.0 ]
				}

			}
, 			{
				"box" : 				{
					"maxclass" : "newobj",
					"text" : "hi",
					"outlettype" : [ "list", "" ],
					"fontsize" : 10.0,
					"patching_rect" : [ 77.0, 115.0, 32.5, 20.0 ],
					"id" : "obj-1",
					"numinlets" : 1,
					"fontname" : "Monaco",
					"numoutlets" : 2
				}

			}
, 			{
				"box" : 				{
					"maxclass" : "panel",
					"bgcolor" : [ 0.282353, 0.282353, 0.282353, 1.0 ],
					"presentation_rect" : [ 12.0, 74.0, 182.0, 192.0 ],
					"patching_rect" : [ 75.0, 277.0, 191.0, 241.0 ],
					"presentation" : 1,
					"id" : "obj-66",
					"numinlets" : 1,
					"numoutlets" : 0
				}

			}
, 			{
				"box" : 				{
					"maxclass" : "panel",
					"bgcolor" : [ 0.92549, 0.835294, 0.647059, 1.0 ],
					"presentation_rect" : [ 7.0, 6.0, 678.0, 34.0 ],
					"patching_rect" : [ 714.0, 74.0, 571.0, 31.0 ],
					"border" : 1,
					"presentation" : 1,
					"id" : "obj-71",
					"numinlets" : 1,
					"numoutlets" : 0
				}

			}
, 			{
				"box" : 				{
					"maxclass" : "panel",
					"bgcolor" : [ 0.92549, 0.835294, 0.647059, 1.0 ],
					"presentation_rect" : [ 8.0, 43.0, 191.0, 228.0 ],
					"patching_rect" : [ 71.0, 245.0, 571.0, 31.0 ],
					"border" : 1,
					"presentation" : 1,
					"id" : "obj-72",
					"numinlets" : 1,
					"numoutlets" : 0
				}

			}
, 			{
				"box" : 				{
					"maxclass" : "panel",
					"bgcolor" : [ 0.92549, 0.835294, 0.647059, 1.0 ],
					"presentation_rect" : [ 7.0, 364.0, 678.0, 49.0 ],
					"patching_rect" : [ 7.0, 364.0, 571.0, 31.0 ],
					"border" : 1,
					"presentation" : 1,
					"id" : "obj-78",
					"numinlets" : 1,
					"numoutlets" : 0
				}

			}
 ],
		"lines" : [ 			{
				"patchline" : 				{
					"source" : [ "obj-44", 0 ],
					"destination" : [ "obj-70", 0 ],
					"hidden" : 0,
					"midpoints" : [  ]
				}

			}
, 			{
				"patchline" : 				{
					"source" : [ "obj-45", 0 ],
					"destination" : [ "obj-68", 0 ],
					"hidden" : 0,
					"midpoints" : [  ]
				}

			}
, 			{
				"patchline" : 				{
					"source" : [ "obj-46", 0 ],
					"destination" : [ "obj-69", 0 ],
					"hidden" : 0,
					"midpoints" : [  ]
				}

			}
, 			{
				"patchline" : 				{
					"source" : [ "obj-47", 0 ],
					"destination" : [ "obj-67", 0 ],
					"hidden" : 0,
					"midpoints" : [  ]
				}

			}
, 			{
				"patchline" : 				{
					"source" : [ "obj-48", 0 ],
					"destination" : [ "obj-62", 0 ],
					"hidden" : 0,
					"midpoints" : [  ]
				}

			}
, 			{
				"patchline" : 				{
					"source" : [ "obj-50", 0 ],
					"destination" : [ "obj-63", 0 ],
					"hidden" : 0,
					"midpoints" : [  ]
				}

			}
, 			{
				"patchline" : 				{
					"source" : [ "obj-53", 0 ],
					"destination" : [ "obj-61", 0 ],
					"hidden" : 0,
					"midpoints" : [  ]
				}

			}
, 			{
				"patchline" : 				{
					"source" : [ "obj-54", 0 ],
					"destination" : [ "obj-60", 0 ],
					"hidden" : 0,
					"midpoints" : [  ]
				}

			}
, 			{
				"patchline" : 				{
					"source" : [ "obj-1", 0 ],
					"destination" : [ "obj-43", 0 ],
					"hidden" : 0,
					"midpoints" : [  ]
				}

			}
, 			{
				"patchline" : 				{
					"source" : [ "obj-96", 1 ],
					"destination" : [ "obj-6", 1 ],
					"hidden" : 0,
					"midpoints" : [ 1010.0, 117.0, 1190.0, 117.0, 1190.0, 405.0, 1169.5, 405.0 ]
				}

			}
, 			{
				"patchline" : 				{
					"source" : [ "obj-96", 1 ],
					"destination" : [ "obj-8", 1 ],
					"hidden" : 0,
					"midpoints" : [ 1010.0, 117.0, 1190.0, 117.0, 1190.0, 366.0, 1169.5, 366.0 ]
				}

			}
, 			{
				"patchline" : 				{
					"source" : [ "obj-96", 1 ],
					"destination" : [ "obj-2", 1 ],
					"hidden" : 0,
					"midpoints" : [ 1010.0, 117.0, 1190.0, 117.0, 1190.0, 327.0, 1169.5, 327.0 ]
				}

			}
, 			{
				"patchline" : 				{
					"source" : [ "obj-96", 1 ],
					"destination" : [ "obj-3", 1 ],
					"hidden" : 0,
					"midpoints" : [ 1010.0, 117.0, 1190.0, 117.0, 1190.0, 285.0, 1169.5, 285.0 ]
				}

			}
, 			{
				"patchline" : 				{
					"source" : [ "obj-96", 1 ],
					"destination" : [ "obj-4", 1 ],
					"hidden" : 0,
					"midpoints" : [ 1010.0, 117.0, 1190.0, 117.0, 1190.0, 246.0, 1169.5, 246.0 ]
				}

			}
, 			{
				"patchline" : 				{
					"source" : [ "obj-96", 1 ],
					"destination" : [ "obj-126", 1 ],
					"hidden" : 0,
					"midpoints" : [ 1010.0, 117.0, 1190.0, 117.0, 1190.0, 207.0, 1169.5, 207.0 ]
				}

			}
, 			{
				"patchline" : 				{
					"source" : [ "obj-96", 1 ],
					"destination" : [ "obj-125", 1 ],
					"hidden" : 0,
					"midpoints" : [ 1010.0, 117.0, 1190.0, 117.0, 1190.0, 165.0, 1169.5, 165.0 ]
				}

			}
, 			{
				"patchline" : 				{
					"source" : [ "obj-96", 1 ],
					"destination" : [ "obj-124", 1 ],
					"hidden" : 0,
					"midpoints" : [ 1010.0, 117.0, 1169.5, 117.0 ]
				}

			}
, 			{
				"patchline" : 				{
					"source" : [ "obj-23", 0 ],
					"destination" : [ "obj-6", 0 ],
					"hidden" : 0,
					"midpoints" : [ 620.5, 457.0, 663.5, 457.0, 663.5, 399.0, 706.5, 399.0 ]
				}

			}
, 			{
				"patchline" : 				{
					"source" : [ "obj-24", 0 ],
					"destination" : [ "obj-8", 0 ],
					"hidden" : 0,
					"midpoints" : [ 620.5, 415.0, 663.5, 415.0, 663.5, 359.0, 706.5, 359.0 ]
				}

			}
, 			{
				"patchline" : 				{
					"source" : [ "obj-25", 0 ],
					"destination" : [ "obj-2", 0 ],
					"hidden" : 0,
					"midpoints" : [ 620.5, 374.0, 663.5, 374.0, 663.5, 320.0, 706.5, 320.0 ]
				}

			}
, 			{
				"patchline" : 				{
					"source" : [ "obj-26", 0 ],
					"destination" : [ "obj-3", 0 ],
					"hidden" : 0,
					"midpoints" : [ 620.5, 332.0, 663.5, 332.0, 663.5, 280.0, 706.5, 280.0 ]
				}

			}
, 			{
				"patchline" : 				{
					"source" : [ "obj-18", 0 ],
					"destination" : [ "obj-4", 0 ],
					"hidden" : 0,
					"midpoints" : [ 620.5, 288.0, 663.5, 288.0, 663.5, 240.0, 706.5, 240.0 ]
				}

			}
, 			{
				"patchline" : 				{
					"source" : [ "obj-22", 0 ],
					"destination" : [ "obj-126", 0 ],
					"hidden" : 0,
					"midpoints" : [ 620.5, 246.0, 663.5, 246.0, 663.5, 200.0, 706.5, 200.0 ]
				}

			}
, 			{
				"patchline" : 				{
					"source" : [ "obj-16", 0 ],
					"destination" : [ "obj-125", 0 ],
					"hidden" : 0,
					"midpoints" : [ 620.5, 205.0, 663.5, 205.0, 663.5, 160.0, 706.5, 160.0 ]
				}

			}
, 			{
				"patchline" : 				{
					"source" : [ "obj-15", 0 ],
					"destination" : [ "obj-124", 0 ],
					"hidden" : 0,
					"midpoints" : [ 620.5, 163.0, 663.5, 163.0, 663.5, 120.0, 706.5, 120.0 ]
				}

			}
, 			{
				"patchline" : 				{
					"source" : [ "obj-10", 1 ],
					"destination" : [ "obj-94", 0 ],
					"hidden" : 0,
					"midpoints" : [ 1196.0, 459.0, 706.5, 459.0 ]
				}

			}
, 			{
				"patchline" : 				{
					"source" : [ "obj-58", 0 ],
					"destination" : [ "obj-5", 0 ],
					"hidden" : 0,
					"midpoints" : [  ]
				}

			}
, 			{
				"patchline" : 				{
					"source" : [ "obj-59", 0 ],
					"destination" : [ "obj-64", 0 ],
					"hidden" : 0,
					"midpoints" : [  ]
				}

			}
, 			{
				"patchline" : 				{
					"source" : [ "obj-95", 1 ],
					"destination" : [ "obj-96", 0 ],
					"hidden" : 0,
					"midpoints" : [ 998.5, 76.0, 998.5, 76.0 ]
				}

			}
, 			{
				"patchline" : 				{
					"source" : [ "obj-64", 0 ],
					"destination" : [ "obj-65", 0 ],
					"hidden" : 0,
					"midpoints" : [  ]
				}

			}
, 			{
				"patchline" : 				{
					"source" : [ "obj-5", 0 ],
					"destination" : [ "obj-65", 0 ],
					"hidden" : 0,
					"midpoints" : [  ]
				}

			}
, 			{
				"patchline" : 				{
					"source" : [ "obj-7", 0 ],
					"destination" : [ "obj-9", 0 ],
					"hidden" : 1,
					"midpoints" : [  ]
				}

			}
, 			{
				"patchline" : 				{
					"source" : [ "obj-51", 0 ],
					"destination" : [ "obj-1", 0 ],
					"hidden" : 0,
					"midpoints" : [  ]
				}

			}
, 			{
				"patchline" : 				{
					"source" : [ "obj-1", 0 ],
					"destination" : [ "obj-49", 0 ],
					"hidden" : 0,
					"midpoints" : [ 86.5, 142.0, 57.5, 142.0 ]
				}

			}
, 			{
				"patchline" : 				{
					"source" : [ "obj-52", 0 ],
					"destination" : [ "obj-51", 0 ],
					"hidden" : 0,
					"midpoints" : [  ]
				}

			}
, 			{
				"patchline" : 				{
					"source" : [ "obj-56", 0 ],
					"destination" : [ "obj-55", 0 ],
					"hidden" : 0,
					"midpoints" : [  ]
				}

			}
, 			{
				"patchline" : 				{
					"source" : [ "obj-52", 1 ],
					"destination" : [ "obj-1", 0 ],
					"hidden" : 0,
					"midpoints" : [ 108.5, 109.0, 86.5, 109.0 ]
				}

			}
, 			{
				"patchline" : 				{
					"source" : [ "obj-55", 0 ],
					"destination" : [ "obj-52", 0 ],
					"hidden" : 0,
					"midpoints" : [ 86.5, 53.5, 86.5, 53.5 ]
				}

			}
, 			{
				"patchline" : 				{
					"source" : [ "obj-124", 0 ],
					"destination" : [ "obj-94", 0 ],
					"hidden" : 0,
					"midpoints" : [  ]
				}

			}
, 			{
				"patchline" : 				{
					"source" : [ "obj-125", 0 ],
					"destination" : [ "obj-94", 0 ],
					"hidden" : 0,
					"midpoints" : [  ]
				}

			}
, 			{
				"patchline" : 				{
					"source" : [ "obj-126", 0 ],
					"destination" : [ "obj-94", 0 ],
					"hidden" : 0,
					"midpoints" : [  ]
				}

			}
, 			{
				"patchline" : 				{
					"source" : [ "obj-4", 0 ],
					"destination" : [ "obj-94", 0 ],
					"hidden" : 0,
					"midpoints" : [  ]
				}

			}
, 			{
				"patchline" : 				{
					"source" : [ "obj-3", 0 ],
					"destination" : [ "obj-94", 0 ],
					"hidden" : 0,
					"midpoints" : [  ]
				}

			}
, 			{
				"patchline" : 				{
					"source" : [ "obj-2", 0 ],
					"destination" : [ "obj-94", 0 ],
					"hidden" : 0,
					"midpoints" : [  ]
				}

			}
, 			{
				"patchline" : 				{
					"source" : [ "obj-8", 0 ],
					"destination" : [ "obj-94", 0 ],
					"hidden" : 0,
					"midpoints" : [  ]
				}

			}
, 			{
				"patchline" : 				{
					"source" : [ "obj-6", 0 ],
					"destination" : [ "obj-94", 0 ],
					"hidden" : 0,
					"midpoints" : [  ]
				}

			}
, 			{
				"patchline" : 				{
					"source" : [ "obj-12", 1 ],
					"destination" : [ "obj-10", 0 ],
					"hidden" : 0,
					"midpoints" : [ 1137.5, 73.0, 1137.5, 73.0 ]
				}

			}
, 			{
				"patchline" : 				{
					"source" : [ "obj-14", 0 ],
					"destination" : [ "obj-10", 0 ],
					"hidden" : 0,
					"midpoints" : [ 1215.5, 72.5, 1137.5, 72.5 ]
				}

			}
, 			{
				"patchline" : 				{
					"source" : [ "obj-20", 0 ],
					"destination" : [ "obj-14", 0 ],
					"hidden" : 0,
					"midpoints" : [  ]
				}

			}
 ]
	}

}
